# Blender v2.90.1 OBJ File: ''
# www.blender.org
mtllib Pillars.mtl
o Cube_Cube.001
v -2.837823 -0.987054 0.167454
v -2.837823 2.149001 0.167454
v -2.837823 -0.987054 -0.167454
v -2.837823 2.149001 -0.167454
v 2.837823 -0.987054 0.167454
v 2.837823 2.149001 0.167454
v 2.837823 -0.987054 -0.167454
v 2.837823 2.149001 -0.167454
v 1.467661 -0.987054 -0.167454
v 0.489220 -0.987054 -0.167454
v -0.489220 -0.987054 -0.167454
v -1.467661 -0.987054 -0.167454
v -1.467661 2.149001 -0.167454
v -0.489220 2.149001 -0.167454
v 0.489220 2.149001 -0.167454
v 1.467661 2.149001 -0.167454
v -1.467661 -0.987054 0.167454
v -0.489220 -0.987054 0.167454
v 0.489220 -0.987054 0.167454
v 1.467661 -0.987054 0.167454
v 1.467661 2.149001 0.167454
v 0.489220 2.149001 0.167454
v -0.489220 2.149001 0.167454
v -1.467661 2.149001 0.167454
v -2.837823 1.710344 0.167454
v -2.837823 1.710344 -0.167454
v 2.837823 1.710344 -0.167454
v 2.837823 1.710344 0.167454
v 1.467661 1.710344 0.167454
v 0.489220 1.710344 0.167454
v -0.489220 1.710344 0.167454
v -1.467661 1.710344 0.167454
v -1.467661 1.710344 -0.167454
v -0.489220 1.710344 -0.167454
v 0.489220 1.710344 -0.167454
v 1.467661 1.710344 -0.167454
v -2.837823 0.024496 -0.167454
v 2.837823 0.024496 -0.167454
v 2.837823 0.024496 0.167454
v 1.467661 0.024496 0.167454
v 0.489220 0.024496 0.167454
v -0.489220 0.024496 0.167454
v -1.467661 0.024496 0.167454
v -1.467661 0.024496 -0.167454
v -0.489220 0.024496 -0.167454
v 0.489220 0.024496 -0.167454
v 1.467661 0.024496 -0.167454
v -2.837823 0.024496 0.167454
vt 0.953976 0.059588
vt 0.953976 0.000000
vt 1.000000 0.000000
vt 1.000000 0.059588
vt 0.060281 0.186126
vt 0.000000 0.186126
vt 0.000000 0.000000
vt 0.060281 0.000000
vt 1.000000 0.792428
vt 1.000000 0.852016
vt 0.953976 0.852016
vt 0.953976 0.792428
vt 0.801647 0.584866
vt 0.861928 0.584866
vt 0.861928 0.770991
vt 0.801647 0.770991
vt 0.907952 0.186126
vt 0.907952 0.000000
vt 0.953976 0.000000
vt 0.953976 0.186126
vt 0.907952 0.584865
vt 0.907952 0.770991
vt 0.907952 0.000000
vt 0.907952 0.186126
vt 0.861928 0.186126
vt 0.861928 0.000000
vt 0.907952 0.319039
vt 0.861928 0.319039
vt 0.907952 0.451952
vt 0.861928 0.451952
vt 0.907952 0.770991
vt 0.907952 0.584865
vt 0.953976 0.584865
vt 0.953976 0.770991
vt 0.907952 0.451952
vt 0.953976 0.451952
vt 0.907952 0.319039
vt 0.953976 0.319039
vt 0.801647 0.000000
vt 0.801647 0.186126
vt 0.801647 0.319039
vt 0.801647 0.451952
vt 0.060281 0.770991
vt 0.000000 0.770991
vt 0.000000 0.584866
vt 0.060281 0.584866
vt 0.000000 0.451952
vt 0.060281 0.451952
vt 0.000000 0.319039
vt 0.060281 0.319039
vt 0.322167 0.770991
vt 0.368191 0.770991
vt 0.368191 0.903904
vt 0.322167 0.903904
vt 0.291954 0.451952
vt 0.291954 0.319039
vt 0.230119 0.903904
vt 0.230119 0.770991
vt 0.276143 0.770991
vt 0.276143 0.903904
vt 0.291954 0.770991
vt 0.291954 0.584866
vt 0.138072 0.770991
vt 0.184096 0.770991
vt 0.184096 1.000000
vt 0.138072 1.000000
vt 0.569974 0.319039
vt 0.569974 0.451952
vt 0.046024 0.770991
vt 0.046024 1.000000
vt 0.000000 1.000000
vt 0.000000 0.770991
vt 0.569974 0.000000
vt 0.569974 0.186126
vt 0.569974 0.584866
vt 0.569974 0.770991
vt 1.000000 0.563419
vt 0.953976 0.563419
vt 0.291954 0.186126
vt 0.291954 0.000000
vt 0.953976 0.288597
vt 1.000000 0.288597
vt 0.953976 0.426008
vt 1.000000 0.426008
vt 0.430964 0.186126
vt 0.430964 0.000000
vt 1.000000 0.426008
vt 0.953976 0.426008
vt 0.430964 0.584866
vt 0.430964 0.770991
vt 0.430964 0.000000
vt 0.430964 0.186126
vt 0.430964 0.319039
vt 0.430964 0.451952
vt 0.430964 0.770991
vt 0.430964 0.584866
vt 0.430964 0.451952
vt 0.430964 0.319039
vt 0.092048 0.770991
vt 0.138072 0.770991
vt 0.138072 1.000000
vt 0.092048 1.000000
vt 0.276143 0.903904
vt 0.276143 0.770991
vt 0.322167 0.770991
vt 0.322167 0.903904
vt 0.092048 0.770991
vt 0.092048 1.000000
vt 0.046024 1.000000
vt 0.046024 0.770991
vt 0.184096 0.770991
vt 0.230119 0.770991
vt 0.230119 0.903904
vt 0.184096 0.903904
vn -1.0000 0.0000 0.0000
vn 0.0000 0.0000 -1.0000
vn 1.0000 0.0000 0.0000
vn 0.0000 0.0000 1.0000
vn 0.0000 -1.0000 0.0000
vn 0.0000 1.0000 0.0000
usemtl None
s off
f 25/1/1 2/2/1 4/3/1 26/4/1
f 36/5/2 16/6/2 8/7/2 27/8/2
f 27/9/3 8/10/3 6/11/3 28/12/3
f 32/13/4 24/14/4 2/15/4 25/16/4
f 9/17/5 7/18/5 5/19/5 20/20/5
f 13/21/6 4/22/6 2/15/6 24/14/6
f 8/23/6 16/24/6 21/25/6 6/26/6
f 16/24/6 15/27/6 22/28/6 21/25/6
f 15/27/6 14/29/6 23/30/6 22/28/6
f 14/29/6 13/21/6 24/14/6 23/30/6
f 3/31/5 12/32/5 17/33/5 1/34/5
f 12/32/5 11/35/5 18/36/5 17/33/5
f 11/35/5 10/37/5 19/38/5 18/36/5
f 10/37/5 9/17/5 20/20/5 19/38/5
f 28/39/4 6/26/4 21/25/4 29/40/4
f 29/40/4 21/25/4 22/28/4 30/41/4
f 30/41/4 22/28/4 23/30/4 31/42/4
f 31/42/4 23/30/4 24/14/4 32/13/4
f 26/43/2 4/44/2 13/45/2 33/46/2
f 33/46/2 13/45/2 14/47/2 34/48/2
f 34/48/2 14/47/2 15/49/2 35/50/2
f 35/50/2 15/49/2 16/6/2 36/5/2
f 40/51/6 47/52/6 46/53/6 41/54/6
f 45/55/2 34/48/2 35/50/2 46/56/2
f 35/57/5 36/58/5 29/59/5 30/60/5
f 37/61/2 26/43/2 33/46/2 44/62/2
f 41/63/3 46/64/3 35/65/3 30/66/3
f 41/67/4 30/41/4 31/42/4 42/68/4
f 40/69/1 29/70/1 36/71/1 47/72/1
f 39/73/4 28/39/4 29/40/4 40/74/4
f 43/75/4 32/13/4 25/16/4 48/76/4
f 38/77/3 27/9/3 28/12/3 39/78/3
f 47/79/2 36/5/2 27/8/2 38/80/2
f 48/81/1 25/1/1 26/4/1 37/82/1
f 1/83/1 48/81/1 37/82/1 3/84/1
f 9/85/2 47/79/2 38/80/2 7/86/2
f 7/87/3 38/77/3 39/78/3 5/88/3
f 17/89/4 43/75/4 48/76/4 1/90/4
f 5/91/4 39/73/4 40/74/4 20/92/4
f 20/92/4 40/74/4 41/67/4 19/93/4
f 19/93/4 41/67/4 42/68/4 18/94/4
f 18/94/4 42/68/4 43/75/4 17/89/4
f 3/95/2 37/61/2 44/62/2 12/96/2
f 12/96/2 44/62/2 45/55/2 11/97/2
f 11/97/2 45/55/2 46/56/2 10/98/2
f 10/98/2 46/56/2 47/79/2 9/85/2
f 43/99/3 44/100/3 33/101/3 32/102/3
f 33/103/5 34/104/5 31/105/5 32/106/5
f 42/107/1 31/108/1 34/109/1 45/110/1
f 42/111/6 45/112/6 44/113/6 43/114/6
