# Blender v2.90.1 OBJ File: ''
# www.blender.org
mtllib Pillars.mtl
o Cube_Cube.001
v -2.837823 1.710344 0.167455
v -2.837823 2.320330 0.167455
v -2.837823 2.149295 -0.167453
v -2.837823 1.710344 -0.167453
v 1.467661 1.710344 -0.167454
v 1.467661 2.149295 -0.167454
v 2.837823 2.149295 -0.167455
v 2.837823 1.710344 -0.167455
v 2.837823 2.320330 0.167453
v 2.837823 1.710344 0.167453
v -1.467661 1.710344 0.167455
v -1.467661 2.320330 0.167455
v 1.467661 -0.987054 -0.167455
v 2.837823 -0.987054 -0.167455
v 2.837823 -0.987054 0.167453
v 1.467661 -0.987054 0.167453
v -1.467661 2.149295 -0.167453
v 1.467661 2.320330 0.167454
v 0.489220 2.149295 -0.167454
v 0.489220 2.320330 0.167454
v -0.489220 2.149295 -0.167453
v -0.489220 2.320330 0.167455
v -2.837823 -0.987054 -0.167453
v -1.467661 -0.987054 -0.167454
v -1.467661 -0.987054 0.167454
v -2.837823 -0.987054 0.167455
v -0.489220 -0.987054 -0.167454
v -0.489220 -0.987054 0.167454
v 0.489220 -0.987054 -0.167454
v 0.489220 -0.987054 0.167454
v 1.467661 1.710344 0.167454
v 0.489220 1.710344 0.167454
v -0.489220 1.710344 0.167454
v -1.467661 1.710344 -0.167453
v -0.489220 1.710344 -0.167454
v 0.489220 1.710344 -0.167454
v 1.467661 0.024496 0.167454
v 1.467661 0.024496 -0.167454
v 0.489220 0.024496 -0.167454
v 0.489220 0.024496 0.167454
v -0.489220 0.024496 -0.167454
v -2.837823 0.024496 -0.167453
v -1.467661 0.024496 -0.167454
v -0.489220 0.024496 0.167454
v 2.837823 0.024496 0.167453
v -1.467661 0.024496 0.167454
v -2.837823 0.024496 0.167455
v 2.837823 0.024496 -0.167455
v -2.837823 2.672607 0.167455
v -2.837823 2.454605 -0.167453
v 1.467661 2.454605 -0.167454
v 2.837823 2.454605 -0.167455
v 2.837823 2.672607 0.167453
v -1.467661 2.672607 0.167455
v -1.467661 2.454605 -0.167453
v 1.467661 2.672607 0.167454
v 0.489220 2.454605 -0.167454
v 0.489220 2.672607 0.167454
v -0.489220 2.454605 -0.167453
v -0.489220 2.672607 0.167455
v -2.837822 3.082860 1.416718
v -1.467661 3.082860 1.416717
v 2.837823 3.082860 1.416716
v 1.467661 3.082860 1.416716
v 0.489220 3.082860 1.416716
v -0.489220 3.082860 1.416717
v -2.837822 3.435138 1.416717
v -1.467661 3.435138 1.416717
v 2.837823 3.435138 1.416716
v 1.467661 3.435138 1.416716
v 0.489220 3.435138 1.416716
v -0.489220 3.435138 1.416717
v -2.837822 3.082860 1.763374
v -1.467660 3.082860 1.763373
v 2.837823 3.082860 1.763372
v 1.467662 3.082860 1.763372
v 0.489221 3.082860 1.763373
v -0.489219 3.082860 1.763373
v -2.837822 3.435138 1.763374
v -1.467660 3.435138 1.763373
v 2.837823 3.435138 1.763372
v 1.467662 3.435138 1.763372
v 0.489221 3.435138 1.763373
v -0.489219 3.435138 1.763373
v -2.837822 3.082860 3.163375
v -1.467660 3.082860 3.163374
v 2.837824 3.082860 3.163373
v 1.467662 3.082860 3.163373
v 0.489221 3.082860 3.163374
v -0.489219 3.082860 3.163374
v -2.837822 3.435138 3.163375
v -1.467660 3.435138 3.163374
v 2.837824 3.435138 3.163373
v 1.467662 3.435138 3.163373
v 0.489221 3.435138 3.163374
v -0.489219 3.435138 3.163374
vt 0.358954 0.708862
vt 0.324611 0.752138
vt 0.308626 0.722513
vt 0.333339 0.691371
vt 0.398172 0.120705
vt 0.356484 0.120705
vt 0.356484 0.000000
vt 0.398172 0.000000
vt 0.552722 0.796320
vt 0.528008 0.765178
vt 0.543994 0.735553
vt 0.578337 0.778830
vt 0.910522 0.379295
vt 0.968453 0.379295
vt 0.968453 0.500000
vt 0.910522 0.500000
vt 0.968453 0.120705
vt 0.968453 0.000000
vt 1.000000 0.000000
vt 1.000000 0.120705
vt 0.304778 0.777131
vt 0.291436 0.744174
vt 0.292653 0.379295
vt 0.292653 0.500000
vt 0.163519 0.500000
vt 0.163519 0.379295
vt 0.356484 0.206902
vt 0.327489 0.206902
vt 0.327489 0.120705
vt 0.356484 0.293098
vt 0.327489 0.293098
vt 0.356484 0.379295
vt 0.327489 0.379295
vt 0.968453 0.500000
vt 0.968453 0.379295
vt 1.000000 0.379295
vt 1.000000 0.500000
vt 0.968453 0.293098
vt 1.000000 0.293098
vt 0.968453 0.206902
vt 1.000000 0.206902
vt 0.910522 0.000000
vt 0.968453 0.000000
vt 0.968453 0.120705
vt 0.910522 0.120705
vt 0.968453 0.206902
vt 0.910522 0.206902
vt 0.968453 0.293098
vt 0.910522 0.293098
vt 0.398172 0.500000
vt 0.356484 0.500000
vt 0.398172 0.379295
vt 0.398172 0.293098
vt 0.398172 0.206902
vt 0.894184 0.500000
vt 0.925537 0.500000
vt 0.925537 0.586196
vt 0.894184 0.586196
vt 0.558279 0.293098
vt 0.558279 0.206902
vt 0.892275 0.746668
vt 0.892275 0.832865
vt 0.860728 0.832865
vt 0.860728 0.746668
vt 0.558279 0.500000
vt 0.558279 0.379295
vt 0.797114 0.500000
vt 0.828921 0.500000
vt 0.828921 0.648516
vt 0.797114 0.648516
vt 0.750415 0.206902
vt 0.750415 0.293098
vt 0.797114 0.797032
vt 0.797114 0.648516
vt 0.828921 0.648516
vt 0.828921 0.797032
vt 0.750415 0.000000
vt 0.750415 0.120705
vt 0.750415 0.379295
vt 0.750415 0.500000
vt 0.647636 0.915925
vt 0.673251 0.898435
vt 0.558279 0.120705
vt 0.558279 0.000000
vt 0.453868 0.589257
vt 0.428253 0.571766
vt 0.510819 0.517491
vt 0.485204 0.500000
vt 0.654347 0.120705
vt 0.654347 0.000000
vt 0.704587 0.987691
vt 0.730202 0.970201
vt 0.654347 0.379295
vt 0.654347 0.500000
vt 0.654347 0.000000
vt 0.654347 0.120705
vt 0.654347 0.206902
vt 0.654347 0.293098
vt 0.654347 0.500000
vt 0.654347 0.379295
vt 0.654347 0.293098
vt 0.654347 0.206902
vt 0.860728 0.797032
vt 0.828921 0.797032
vt 0.828921 0.648516
vt 0.860728 0.648516
vt 0.795205 0.706902
vt 0.795205 0.793098
vt 0.763658 0.793098
vt 0.763658 0.706902
vt 0.828921 0.648516
vt 0.828921 0.500000
vt 0.860728 0.500000
vt 0.860728 0.648516
vt 0.892275 0.746668
vt 0.923628 0.746668
vt 0.923628 0.832865
vt 0.892275 0.832865
vt 0.327488 0.500000
vt 0.327488 0.000000
vt 0.292653 0.120705
vt 0.292653 0.000000
vt 0.292653 0.206902
vt 0.292653 0.293098
vt 0.510819 0.743517
vt 0.524161 0.710560
vt 0.163519 0.293098
vt 0.163519 0.206902
vt 0.000000 0.620705
vt 0.000000 0.500000
vt 0.126908 0.500000
vt 0.126908 0.620705
vt 0.000000 0.706902
vt 0.126908 0.706902
vt 0.000000 0.793098
vt 0.126908 0.793098
vt 0.163519 0.000000
vt 0.163519 0.120705
vt 0.131066 0.120705
vt 0.131066 0.000000
vt 0.131066 0.379295
vt 0.131066 0.293098
vt 0.159561 0.620705
vt 0.159562 0.706902
vt 0.357395 0.896473
vt 0.377228 0.871480
vt 0.403742 0.889584
vt 0.383909 0.914577
vt 0.131066 0.500000
vt 0.000000 0.879295
vt 0.126908 0.879295
vt 0.576778 0.591219
vt 0.596611 0.616212
vt 0.000000 1.000000
vt 0.126908 1.000000
vt 0.000000 0.379295
vt 0.000000 0.293098
vt 0.291436 0.620705
vt 0.291436 0.706902
vt 0.763658 0.706902
vt 0.763658 0.793098
vt 0.730202 0.793098
vt 0.730202 0.706902
vt 0.510819 0.962698
vt 0.490986 0.987691
vt 0.000000 0.500000
vt 0.603291 0.573115
vt 0.623125 0.598108
vt 0.159562 0.793098
vt 0.159562 0.879295
vt 0.159562 1.000000
vt 0.131066 0.206902
vt 0.159561 0.500000
vt 0.797114 0.620705
vt 0.797114 0.706902
vt 0.763658 0.706902
vt 0.763658 0.620705
vt 0.797114 0.500000
vt 0.763658 0.500000
vt 0.763658 0.500000
vt 0.763658 0.586196
vt 0.730202 0.586196
vt 0.730202 0.500000
vt 0.763658 0.706902
vt 0.730202 0.706902
vt 0.000000 0.120705
vt 0.000000 0.000000
vt 0.710369 0.500000
vt 0.730202 0.524993
vt 0.860728 0.623334
vt 0.894184 0.623334
vt 0.894184 0.746668
vt 0.860728 0.746668
vt 0.291436 0.879295
vt 0.291436 1.000000
vt 0.000000 0.206902
vt 0.860728 0.500000
vt 0.894184 0.500000
vt 0.894184 0.623334
vt 0.860728 0.623334
vt 0.291436 0.793098
vt 0.291436 0.500000
vn -1.0000 -0.0000 0.0000
vn -0.0000 0.0000 -1.0000
vn 1.0000 -0.0000 0.0000
vn 0.0000 -0.0000 1.0000
vn 0.0000 -1.0000 0.0000
vn -0.0000 0.8536 -0.5210
vn 0.0000 1.0000 0.0000
vn -0.0000 0.8381 -0.5455
vn 0.0000 -0.8536 0.5210
usemtl None
s off
f 1/1/1 2/2/1 3/3/1 4/4/1
f 5/5/2 6/6/2 7/7/2 8/8/2
f 8/9/3 7/10/3 9/11/3 10/12/3
f 11/13/4 12/14/4 2/15/4 1/16/4
f 13/17/5 14/18/5 15/19/5 16/20/5
f 3/3/1 2/2/1 49/21/1 50/22/1
f 54/23/6 49/24/6 67/25/6 68/26/6
f 6/6/2 19/27/2 57/28/2 51/29/2
f 19/27/2 21/30/2 59/31/2 57/28/2
f 21/30/2 17/32/2 55/33/2 59/31/2
f 23/34/5 24/35/5 25/36/5 26/37/5
f 24/35/5 27/38/5 28/39/5 25/36/5
f 27/38/5 29/40/5 30/41/5 28/39/5
f 29/40/5 13/17/5 16/20/5 30/41/5
f 10/42/4 9/43/4 18/44/4 31/45/4
f 31/45/4 18/44/4 20/46/4 32/47/4
f 32/47/4 20/46/4 22/48/4 33/49/4
f 33/49/4 22/48/4 12/14/4 11/13/4
f 4/50/2 3/51/2 17/32/2 34/52/2
f 34/52/2 17/32/2 21/30/2 35/53/2
f 35/53/2 21/30/2 19/27/2 36/54/2
f 36/54/2 19/27/2 6/6/2 5/5/2
f 37/55/7 38/56/7 39/57/7 40/58/7
f 41/59/2 35/53/2 36/54/2 39/60/2
f 36/61/5 5/62/5 31/63/5 32/64/5
f 42/65/2 4/50/2 34/52/2 43/66/2
f 40/67/3 39/68/3 36/69/3 32/70/3
f 40/71/4 32/47/4 33/49/4 44/72/4
f 37/73/1 31/74/1 5/75/1 38/76/1
f 45/77/4 10/42/4 31/45/4 37/78/4
f 46/79/4 11/13/4 1/16/4 47/80/4
f 48/81/3 8/9/3 10/12/3 45/82/3
f 38/83/2 5/5/2 8/8/2 48/84/2
f 47/85/1 1/1/1 4/4/1 42/86/1
f 26/87/1 47/85/1 42/86/1 23/88/1
f 13/89/2 38/83/2 48/84/2 14/90/2
f 14/91/3 48/81/3 45/82/3 15/92/3
f 25/93/4 46/79/4 47/80/4 26/94/4
f 15/95/4 45/77/4 37/78/4 16/96/4
f 16/96/4 37/78/4 40/71/4 30/97/4
f 30/97/4 40/71/4 44/72/4 28/98/4
f 28/98/4 44/72/4 46/79/4 25/93/4
f 23/99/2 42/65/2 43/66/2 24/100/2
f 24/100/2 43/66/2 41/59/2 27/101/2
f 27/101/2 41/59/2 39/60/2 29/102/2
f 29/102/2 39/60/2 38/83/2 13/89/2
f 46/103/3 43/104/3 34/105/3 11/106/3
f 34/107/5 35/108/5 33/109/5 11/110/5
f 44/111/1 33/112/1 35/113/1 41/114/1
f 44/115/7 41/116/7 43/117/7 46/118/7
f 55/33/8 50/119/8 49/24/8 54/23/8
f 52/120/8 51/29/8 56/121/8 53/122/8
f 51/29/8 57/28/8 58/123/8 56/121/8
f 57/28/8 59/31/8 60/124/8 58/123/8
f 59/31/8 55/33/8 54/23/8 60/124/8
f 17/32/2 3/51/2 50/119/2 55/33/2
f 9/11/3 7/10/3 52/125/3 53/126/3
f 7/7/2 6/6/2 51/29/2 52/120/2
f 58/123/6 60/124/6 72/127/6 71/128/6
f 18/129/9 9/130/9 63/131/9 64/132/9
f 20/133/9 18/129/9 64/132/9 65/134/9
f 22/135/9 20/133/9 65/134/9 66/136/9
f 69/137/7 70/138/7 82/139/7 81/140/7
f 72/127/7 68/26/7 80/141/7 84/142/7
f 65/134/5 64/132/5 76/143/5 77/144/5
f 67/145/1 61/146/1 73/147/1 79/148/1
f 68/26/7 67/25/7 79/149/7 80/141/7
f 56/121/6 58/123/6 71/128/6 70/138/6
f 53/122/6 56/121/6 70/138/6 69/137/6
f 12/150/9 22/135/9 66/136/9 62/151/9
f 9/11/3 53/126/3 69/152/3 63/153/3
f 49/21/1 2/2/1 61/146/1 67/145/1
f 60/124/6 54/23/6 68/26/6 72/127/6
f 2/154/9 12/150/9 62/151/9 61/155/9
f 84/142/7 80/141/7 92/156/7 96/157/7
f 77/144/5 76/143/5 88/158/5 89/159/5
f 78/160/4 77/161/4 83/162/4 84/163/4
f 79/148/1 73/147/1 85/164/1 91/165/1
f 80/141/7 79/149/7 91/166/7 92/156/7
f 63/153/3 69/152/3 81/167/3 75/168/3
f 66/136/5 65/134/5 77/144/5 78/169/5
f 61/155/5 62/151/5 74/170/5 73/171/5
f 70/138/7 71/128/7 83/172/7 82/139/7
f 62/151/5 66/136/5 78/169/5 74/170/5
f 64/132/5 63/131/5 75/173/5 76/143/5
f 71/128/7 72/127/7 84/142/7 83/172/7
f 86/174/4 90/175/4 96/176/4 92/177/4
f 85/178/4 86/174/4 92/177/4 91/179/4
f 89/180/4 88/181/4 94/182/4 95/183/4
f 88/181/4 87/184/4 93/185/4 94/182/4
f 81/140/7 82/139/7 94/186/7 93/187/7
f 75/168/3 81/167/3 93/188/3 87/189/3
f 78/190/3 84/191/3 96/192/3 90/193/3
f 73/171/5 74/170/5 86/194/5 85/195/5
f 82/139/7 83/172/7 95/196/7 94/186/7
f 83/197/1 77/198/1 89/199/1 95/200/1
f 74/170/5 78/169/5 90/201/5 86/194/5
f 76/143/5 75/173/5 87/202/5 88/158/5
